<svg id="visual" viewBox="0 0 1600 200" width="1600" height="200" xmlns="http://www.w3.org/2000/svg" xmlns:xlink="http://www.w3.org/1999/xlink" version="1.1"><rect x="0" y="0" width="1600" height="200" fill="#fff"></rect><path d="M0 105L10.3 104C20.7 103 41.3 101 61.8 96.8C82.3 92.7 102.7 86.3 123.2 88.8C143.7 91.3 164.3 102.7 184.8 105.2C205.3 107.7 225.7 101.3 246.2 100.5C266.7 99.7 287.3 104.3 307.8 106.3C328.3 108.3 348.7 107.7 369.2 108.2C389.7 108.7 410.3 110.3 430.8 104.7C451.3 99 471.7 86 492.2 87.5C512.7 89 533.3 105 553.8 105C574.3 105 594.7 89 615.2 88.8C635.7 88.7 656.3 104.3 676.8 104C697.3 103.7 717.7 87.3 738.2 88.2C758.7 89 779.3 107 800 109.2C820.7 111.3 841.3 97.7 861.8 96.2C882.3 94.7 902.7 105.3 923.2 105C943.7 104.7 964.3 93.3 984.8 92.8C1005.3 92.3 1025.7 102.7 1046.2 103.3C1066.7 104 1087.3 95 1107.8 95.5C1128.3 96 1148.7 106 1169.2 106.3C1189.7 106.7 1210.3 97.3 1230.8 99.3C1251.3 101.3 1271.7 114.7 1292.2 119C1312.7 123.3 1333.3 118.7 1353.8 117C1374.3 115.3 1394.7 116.7 1415.2 109.8C1435.7 103 1456.3 88 1476.8 83.2C1497.3 78.3 1517.7 83.7 1538.2 87.3C1558.7 91 1579.3 93 1589.7 94L1600 95L1600 201L1589.7 201C1579.3 201 1558.7 201 1538.2 201C1517.7 201 1497.3 201 1476.8 201C1456.3 201 1435.7 201 1415.2 201C1394.7 201 1374.3 201 1353.8 201C1333.3 201 1312.7 201 1292.2 201C1271.7 201 1251.3 201 1230.8 201C1210.3 201 1189.7 201 1169.2 201C1148.7 201 1128.3 201 1107.8 201C1087.3 201 1066.7 201 1046.2 201C1025.7 201 1005.3 201 984.8 201C964.3 201 943.7 201 923.2 201C902.7 201 882.3 201 861.8 201C841.3 201 820.7 201 800 201C779.3 201 758.7 201 738.2 201C717.7 201 697.3 201 676.8 201C656.3 201 635.7 201 615.2 201C594.7 201 574.3 201 553.8 201C533.3 201 512.7 201 492.2 201C471.7 201 451.3 201 430.8 201C410.3 201 389.7 201 369.2 201C348.7 201 328.3 201 307.8 201C287.3 201 266.7 201 246.2 201C225.7 201 205.3 201 184.8 201C164.3 201 143.7 201 123.2 201C102.7 201 82.3 201 61.8 201C41.3 201 20.7 201 10.3 201L0 201Z" fill="#000" stroke-linecap="round" stroke-linejoin="miter"></path></svg>