<svg id="visual" viewBox="0 0 1600 500" width="1600" height="500" xmlns="http://www.w3.org/2000/svg" xmlns:xlink="http://www.w3.org/1999/xlink" version="1.1"><path d="M0 370L38.2 362.2C76.3 354.3 152.7 338.7 228.8 325.8C305 313 381 303 457.2 308.8C533.3 314.7 609.7 336.3 685.8 347.5C762 358.7 838 359.3 914.2 352.3C990.3 345.3 1066.7 330.7 1142.8 319.5C1219 308.3 1295 300.7 1371.2 305.3C1447.3 310 1523.7 327 1561.8 335.5L1600 344L1600 501L1561.8 501C1523.7 501 1447.3 501 1371.2 501C1295 501 1219 501 1142.8 501C1066.7 501 990.3 501 914.2 501C838 501 762 501 685.8 501C609.7 501 533.3 501 457.2 501C381 501 305 501 228.8 501C152.7 501 76.3 501 38.2 501L0 501Z" fill="#cccccc"></path><path d="M0 332L38.2 342.8C76.3 353.7 152.7 375.3 228.8 384.3C305 393.3 381 389.7 457.2 382C533.3 374.3 609.7 362.7 685.8 363.7C762 364.7 838 378.3 914.2 377.3C990.3 376.3 1066.7 360.7 1142.8 357.2C1219 353.7 1295 362.3 1371.2 365.8C1447.3 369.3 1523.7 367.7 1561.8 366.8L1600 366L1600 501L1561.8 501C1523.7 501 1447.3 501 1371.2 501C1295 501 1219 501 1142.8 501C1066.7 501 990.3 501 914.2 501C838 501 762 501 685.8 501C609.7 501 533.3 501 457.2 501C381 501 305 501 228.8 501C152.7 501 76.3 501 38.2 501L0 501Z" fill="#959595"></path><path d="M0 418L38.2 418.8C76.3 419.7 152.7 421.3 228.8 419.3C305 417.3 381 411.7 457.2 405.8C533.3 400 609.7 394 685.8 395C762 396 838 404 914.2 406.7C990.3 409.3 1066.7 406.7 1142.8 406.5C1219 406.3 1295 408.7 1371.2 403.3C1447.3 398 1523.7 385 1561.8 378.5L1600 372L1600 501L1561.8 501C1523.7 501 1447.3 501 1371.2 501C1295 501 1219 501 1142.8 501C1066.7 501 990.3 501 914.2 501C838 501 762 501 685.8 501C609.7 501 533.3 501 457.2 501C381 501 305 501 228.8 501C152.7 501 76.3 501 38.2 501L0 501Z" fill="#616161"></path><path d="M0 416L38.2 417.7C76.3 419.3 152.7 422.7 228.8 421.7C305 420.7 381 415.3 457.2 413.2C533.3 411 609.7 412 685.8 413C762 414 838 415 914.2 419.7C990.3 424.3 1066.7 432.7 1142.8 438C1219 443.3 1295 445.7 1371.2 443.8C1447.3 442 1523.7 436 1561.8 433L1600 430L1600 501L1561.8 501C1523.7 501 1447.3 501 1371.2 501C1295 501 1219 501 1142.8 501C1066.7 501 990.3 501 914.2 501C838 501 762 501 685.8 501C609.7 501 533.3 501 457.2 501C381 501 305 501 228.8 501C152.7 501 76.3 501 38.2 501L0 501Z" fill="#323232"></path><path d="M0 474L38.2 468.8C76.3 463.7 152.7 453.3 228.8 451.5C305 449.7 381 456.3 457.2 462C533.3 467.7 609.7 472.3 685.8 468.5C762 464.7 838 452.3 914.2 452.5C990.3 452.7 1066.7 465.3 1142.8 465.5C1219 465.7 1295 453.3 1371.2 449.2C1447.3 445 1523.7 449 1561.8 451L1600 453L1600 501L1561.8 501C1523.7 501 1447.3 501 1371.2 501C1295 501 1219 501 1142.8 501C1066.7 501 990.3 501 914.2 501C838 501 762 501 685.8 501C609.7 501 533.3 501 457.2 501C381 501 305 501 228.8 501C152.7 501 76.3 501 38.2 501L0 501Z" fill="#000000"></path></svg>