<svg id="visual" viewBox="0 0 1600 500" width="1600" height="500" xmlns="http://www.w3.org/2000/svg" xmlns:xlink="http://www.w3.org/1999/xlink" version="1.1"><path d="M0 128L38.2 135.8C76.3 143.7 152.7 159.3 228.8 172.2C305 185 381 195 457.2 189.2C533.3 183.3 609.7 161.7 685.8 150.5C762 139.3 838 138.7 914.2 145.7C990.3 152.7 1066.7 167.3 1142.8 178.5C1219 189.7 1295 197.3 1371.2 192.7C1447.3 188 1523.7 171 1561.8 162.5L1600 154L1600 0L1561.8 0C1523.7 0 1447.3 0 1371.2 0C1295 0 1219 0 1142.8 0C1066.7 0 990.3 0 914.2 0C838 0 762 0 685.8 0C609.7 0 533.3 0 457.2 0C381 0 305 0 228.8 0C152.7 0 76.3 0 38.2 0L0 0Z" fill="#cccccc"></path><path d="M0 166L38.2 155.2C76.3 144.3 152.7 122.7 228.8 113.7C305 104.7 381 108.3 457.2 116C533.3 123.7 609.7 135.3 685.8 134.3C762 133.3 838 119.7 914.2 120.7C990.3 121.7 1066.7 137.3 1142.8 140.8C1219 144.3 1295 135.7 1371.2 132.2C1447.3 128.7 1523.7 130.3 1561.8 131.2L1600 132L1600 0L1561.8 0C1523.7 0 1447.3 0 1371.2 0C1295 0 1219 0 1142.8 0C1066.7 0 990.3 0 914.2 0C838 0 762 0 685.8 0C609.7 0 533.3 0 457.2 0C381 0 305 0 228.8 0C152.7 0 76.3 0 38.2 0L0 0Z" fill="#959595"></path><path d="M0 80L38.2 79.2C76.3 78.3 152.7 76.7 228.8 78.7C305 80.7 381 86.3 457.2 92.2C533.3 98 609.7 104 685.8 103C762 102 838 94 914.2 91.3C990.3 88.7 1066.7 91.3 1142.8 91.5C1219 91.7 1295 89.3 1371.2 94.7C1447.3 100 1523.7 113 1561.8 119.5L1600 126L1600 0L1561.8 0C1523.7 0 1447.3 0 1371.2 0C1295 0 1219 0 1142.8 0C1066.7 0 990.3 0 914.2 0C838 0 762 0 685.8 0C609.7 0 533.3 0 457.2 0C381 0 305 0 228.8 0C152.7 0 76.3 0 38.2 0L0 0Z" fill="#616161"></path><path d="M0 82L38.2 80.3C76.3 78.7 152.7 75.3 228.8 76.3C305 77.3 381 82.7 457.2 84.8C533.3 87 609.7 86 685.8 85C762 84 838 83 914.2 78.3C990.3 73.7 1066.7 65.3 1142.8 60C1219 54.7 1295 52.3 1371.2 54.2C1447.3 56 1523.7 62 1561.8 65L1600 68L1600 0L1561.8 0C1523.7 0 1447.3 0 1371.2 0C1295 0 1219 0 1142.8 0C1066.7 0 990.3 0 914.2 0C838 0 762 0 685.8 0C609.7 0 533.3 0 457.2 0C381 0 305 0 228.8 0C152.7 0 76.3 0 38.2 0L0 0Z" fill="#323232"></path><path d="M0 24L38.2 29.2C76.3 34.3 152.7 44.7 228.8 46.5C305 48.3 381 41.7 457.2 36C533.3 30.3 609.7 25.7 685.8 29.5C762 33.3 838 45.7 914.2 45.5C990.3 45.3 1066.7 32.7 1142.8 32.5C1219 32.3 1295 44.7 1371.2 48.8C1447.3 53 1523.7 49 1561.8 47L1600 45L1600 0L1561.8 0C1523.7 0 1447.3 0 1371.2 0C1295 0 1219 0 1142.8 0C1066.7 0 990.3 0 914.2 0C838 0 762 0 685.8 0C609.7 0 533.3 0 457.2 0C381 0 305 0 228.8 0C152.7 0 76.3 0 38.2 0L0 0Z" fill="#000000"></path></svg>