<svg id="visual" viewBox="0 0 1600 200" width="1600" height="200" xmlns="http://www.w3.org/2000/svg" xmlns:xlink="http://www.w3.org/1999/xlink" version="1.1"><rect x="0" y="0" width="1600" height="200" fill="#fff"></rect><path d="M0 93L10.3 94C20.7 95 41.3 97 61.8 101.2C82.3 105.3 102.7 111.7 123.2 109.2C143.7 106.7 164.3 95.3 184.8 92.8C205.3 90.3 225.7 96.7 246.2 97.5C266.7 98.3 287.3 93.7 307.8 91.7C328.3 89.7 348.7 90.3 369.2 89.8C389.7 89.3 410.3 87.7 430.8 93.3C451.3 99 471.7 112 492.2 110.5C512.7 109 533.3 93 553.8 93C574.3 93 594.7 109 615.2 109.2C635.7 109.3 656.3 93.7 676.8 94C697.3 94.3 717.7 110.7 738.2 109.8C758.7 109 779.3 91 800 88.8C820.7 86.7 841.3 100.3 861.8 101.8C882.3 103.3 902.7 92.7 923.2 93C943.7 93.3 964.3 104.7 984.8 105.2C1005.3 105.7 1025.7 95.3 1046.2 94.7C1066.7 94 1087.3 103 1107.8 102.5C1128.3 102 1148.7 92 1169.2 91.7C1189.7 91.3 1210.3 100.7 1230.8 98.7C1251.3 96.7 1271.7 83.3 1292.2 79C1312.7 74.7 1333.3 79.3 1353.8 81C1374.3 82.7 1394.7 81.3 1415.2 88.2C1435.7 95 1456.3 110 1476.8 114.8C1497.3 119.7 1517.7 114.3 1538.2 110.7C1558.7 107 1579.3 105 1589.7 104L1600 103L1600 0L1589.7 0C1579.3 0 1558.7 0 1538.2 0C1517.7 0 1497.3 0 1476.8 0C1456.3 0 1435.7 0 1415.2 0C1394.7 0 1374.3 0 1353.8 0C1333.3 0 1312.7 0 1292.2 0C1271.7 0 1251.3 0 1230.8 0C1210.3 0 1189.7 0 1169.2 0C1148.7 0 1128.3 0 1107.8 0C1087.3 0 1066.7 0 1046.2 0C1025.7 0 1005.3 0 984.8 0C964.3 0 943.7 0 923.2 0C902.7 0 882.3 0 861.8 0C841.3 0 820.7 0 800 0C779.3 0 758.7 0 738.2 0C717.7 0 697.3 0 676.8 0C656.3 0 635.7 0 615.2 0C594.7 0 574.3 0 553.8 0C533.3 0 512.7 0 492.2 0C471.7 0 451.3 0 430.8 0C410.3 0 389.7 0 369.2 0C348.7 0 328.3 0 307.8 0C287.3 0 266.7 0 246.2 0C225.7 0 205.3 0 184.8 0C164.3 0 143.7 0 123.2 0C102.7 0 82.3 0 61.8 0C41.3 0 20.7 0 10.3 0L0 0Z" fill="#000" stroke-linecap="round" stroke-linejoin="miter"></path></svg>