<svg id="visual" viewBox="0 0 1600 500" width="1600" height="500" xmlns="http://www.w3.org/2000/svg" xmlns:xlink="http://www.w3.org/1999/xlink" version="1.1"><rect x="0" y="0" width="1600" height="500" fill="#fff"></rect><path d="M0 375L22.2 374.2C44.3 373.3 88.7 371.7 133.2 374.3C177.7 377 222.3 384 266.8 388.2C311.3 392.3 355.7 393.7 400 391C444.3 388.3 488.7 381.7 533.2 381C577.7 380.3 622.3 385.7 666.8 385.2C711.3 384.7 755.7 378.3 800 383.7C844.3 389 888.7 406 933.2 412.5C977.7 419 1022.3 415 1066.8 405.2C1111.3 395.3 1155.7 379.7 1200 379.8C1244.3 380 1288.7 396 1333.2 405.3C1377.7 414.7 1422.3 417.3 1466.8 418.3C1511.3 419.3 1555.7 418.7 1577.8 418.3L1600 418L1600 501L1577.8 501C1555.7 501 1511.3 501 1466.8 501C1422.3 501 1377.7 501 1333.2 501C1288.7 501 1244.3 501 1200 501C1155.7 501 1111.3 501 1066.8 501C1022.3 501 977.7 501 933.2 501C888.7 501 844.3 501 800 501C755.7 501 711.3 501 666.8 501C622.3 501 577.7 501 533.2 501C488.7 501 444.3 501 400 501C355.7 501 311.3 501 266.8 501C222.3 501 177.7 501 133.2 501C88.7 501 44.3 501 22.2 501L0 501Z" fill="#888277"></path><path d="M0 432L22.2 431.7C44.3 431.3 88.7 430.7 133.2 421.5C177.7 412.3 222.3 394.7 266.8 391.8C311.3 389 355.7 401 400 407C444.3 413 488.7 413 533.2 416C577.7 419 622.3 425 666.8 419.7C711.3 414.3 755.7 397.7 800 395.2C844.3 392.7 888.7 404.3 933.2 411.8C977.7 419.3 1022.3 422.7 1066.8 421.5C1111.3 420.3 1155.7 414.7 1200 412.2C1244.3 409.7 1288.7 410.3 1333.2 413.8C1377.7 417.3 1422.3 423.7 1466.8 420.7C1511.3 417.7 1555.7 405.3 1577.8 399.2L1600 393L1600 501L1577.8 501C1555.7 501 1511.3 501 1466.8 501C1422.3 501 1377.7 501 1333.2 501C1288.7 501 1244.3 501 1200 501C1155.7 501 1111.3 501 1066.8 501C1022.3 501 977.7 501 933.2 501C888.7 501 844.3 501 800 501C755.7 501 711.3 501 666.8 501C622.3 501 577.7 501 533.2 501C488.7 501 444.3 501 400 501C355.7 501 311.3 501 266.8 501C222.3 501 177.7 501 133.2 501C88.7 501 44.3 501 22.2 501L0 501Z" fill="#787368"></path><path d="M0 418L22.2 415.5C44.3 413 88.7 408 133.2 404.7C177.7 401.3 222.3 399.7 266.8 397.8C311.3 396 355.7 394 400 398.2C444.3 402.3 488.7 412.7 533.2 416.7C577.7 420.7 622.3 418.3 666.8 419.5C711.3 420.7 755.7 425.3 800 424.5C844.3 423.7 888.7 417.3 933.2 411.3C977.7 405.3 1022.3 399.7 1066.8 401C1111.3 402.3 1155.7 410.7 1200 411.7C1244.3 412.7 1288.7 406.3 1333.2 402C1377.7 397.7 1422.3 395.3 1466.8 401.8C1511.3 408.3 1555.7 423.7 1577.8 431.3L1600 439L1600 501L1577.8 501C1555.7 501 1511.3 501 1466.8 501C1422.3 501 1377.7 501 1333.2 501C1288.7 501 1244.3 501 1200 501C1155.7 501 1111.3 501 1066.8 501C1022.3 501 977.7 501 933.2 501C888.7 501 844.3 501 800 501C755.7 501 711.3 501 666.8 501C622.3 501 577.7 501 533.2 501C488.7 501 444.3 501 400 501C355.7 501 311.3 501 266.8 501C222.3 501 177.7 501 133.2 501C88.7 501 44.3 501 22.2 501L0 501Z" fill="#696459"></path><path d="M0 408L22.2 410.7C44.3 413.3 88.7 418.7 133.2 421.2C177.7 423.7 222.3 423.3 266.8 426.7C311.3 430 355.7 437 400 438.5C444.3 440 488.7 436 533.2 429.7C577.7 423.3 622.3 414.7 666.8 415.8C711.3 417 755.7 428 800 430C844.3 432 888.7 425 933.2 423C977.7 421 1022.3 424 1066.8 423.3C1111.3 422.7 1155.7 418.3 1200 414.3C1244.3 410.3 1288.7 406.7 1333.2 407.7C1377.7 408.7 1422.3 414.3 1466.8 417.5C1511.3 420.7 1555.7 421.3 1577.8 421.7L1600 422L1600 501L1577.8 501C1555.7 501 1511.3 501 1466.8 501C1422.3 501 1377.7 501 1333.2 501C1288.7 501 1244.3 501 1200 501C1155.7 501 1111.3 501 1066.8 501C1022.3 501 977.7 501 933.2 501C888.7 501 844.3 501 800 501C755.7 501 711.3 501 666.8 501C622.3 501 577.7 501 533.2 501C488.7 501 444.3 501 400 501C355.7 501 311.3 501 266.8 501C222.3 501 177.7 501 133.2 501C88.7 501 44.3 501 22.2 501L0 501Z" fill="#5a554b"></path><path d="M0 434L22.2 432C44.3 430 88.7 426 133.2 427C177.7 428 222.3 434 266.8 437.3C311.3 440.7 355.7 441.3 400 441.7C444.3 442 488.7 442 533.2 444.3C577.7 446.7 622.3 451.3 666.8 452.2C711.3 453 755.7 450 800 444.3C844.3 438.7 888.7 430.3 933.2 428C977.7 425.7 1022.3 429.3 1066.8 428.3C1111.3 427.3 1155.7 421.7 1200 419C1244.3 416.3 1288.7 416.7 1333.2 419.5C1377.7 422.3 1422.3 427.7 1466.8 431.7C1511.3 435.7 1555.7 438.3 1577.8 439.7L1600 441L1600 501L1577.8 501C1555.7 501 1511.3 501 1466.8 501C1422.3 501 1377.7 501 1333.2 501C1288.7 501 1244.3 501 1200 501C1155.7 501 1111.3 501 1066.8 501C1022.3 501 977.7 501 933.2 501C888.7 501 844.3 501 800 501C755.7 501 711.3 501 666.8 501C622.3 501 577.7 501 533.2 501C488.7 501 444.3 501 400 501C355.7 501 311.3 501 266.8 501C222.3 501 177.7 501 133.2 501C88.7 501 44.3 501 22.2 501L0 501Z" fill="#4c473d"></path><path d="M0 458L22.2 458.7C44.3 459.3 88.7 460.7 133.2 460.2C177.7 459.7 222.3 457.3 266.8 457C311.3 456.7 355.7 458.3 400 456.7C444.3 455 488.7 450 533.2 446.2C577.7 442.3 622.3 439.7 666.8 437.2C711.3 434.7 755.7 432.3 800 431.7C844.3 431 888.7 432 933.2 432.7C977.7 433.3 1022.3 433.7 1066.8 438C1111.3 442.3 1155.7 450.7 1200 454.8C1244.3 459 1288.7 459 1333.2 455C1377.7 451 1422.3 443 1466.8 439.7C1511.3 436.3 1555.7 437.7 1577.8 438.3L1600 439L1600 501L1577.8 501C1555.7 501 1511.3 501 1466.8 501C1422.3 501 1377.7 501 1333.2 501C1288.7 501 1244.3 501 1200 501C1155.7 501 1111.3 501 1066.8 501C1022.3 501 977.7 501 933.2 501C888.7 501 844.3 501 800 501C755.7 501 711.3 501 666.8 501C622.3 501 577.7 501 533.2 501C488.7 501 444.3 501 400 501C355.7 501 311.3 501 266.8 501C222.3 501 177.7 501 133.2 501C88.7 501 44.3 501 22.2 501L0 501Z" fill="#3e392f"></path><path d="M0 456L22.2 458C44.3 460 88.7 464 133.2 463.3C177.7 462.7 222.3 457.3 266.8 456C311.3 454.7 355.7 457.3 400 456.8C444.3 456.3 488.7 452.7 533.2 450.8C577.7 449 622.3 449 666.8 448.3C711.3 447.7 755.7 446.3 800 447.3C844.3 448.3 888.7 451.7 933.2 451.3C977.7 451 1022.3 447 1066.8 448C1111.3 449 1155.7 455 1200 455.8C1244.3 456.7 1288.7 452.3 1333.2 453.5C1377.7 454.7 1422.3 461.3 1466.8 464.3C1511.3 467.3 1555.7 466.7 1577.8 466.3L1600 466L1600 501L1577.8 501C1555.7 501 1511.3 501 1466.8 501C1422.3 501 1377.7 501 1333.2 501C1288.7 501 1244.3 501 1200 501C1155.7 501 1111.3 501 1066.8 501C1022.3 501 977.7 501 933.2 501C888.7 501 844.3 501 800 501C755.7 501 711.3 501 666.8 501C622.3 501 577.7 501 533.2 501C488.7 501 444.3 501 400 501C355.7 501 311.3 501 266.8 501C222.3 501 177.7 501 133.2 501C88.7 501 44.3 501 22.2 501L0 501Z" fill="#312c23"></path><path d="M0 476L22.2 474C44.3 472 88.7 468 133.2 467.3C177.7 466.7 222.3 469.3 266.8 468.8C311.3 468.3 355.7 464.7 400 465.8C444.3 467 488.7 473 533.2 474.5C577.7 476 622.3 473 666.8 469.8C711.3 466.7 755.7 463.3 800 462.5C844.3 461.7 888.7 463.3 933.2 465.7C977.7 468 1022.3 471 1066.8 472C1111.3 473 1155.7 472 1200 470C1244.3 468 1288.7 465 1333.2 466.2C1377.7 467.3 1422.3 472.7 1466.8 471.2C1511.3 469.7 1555.7 461.3 1577.8 457.2L1600 453L1600 501L1577.8 501C1555.7 501 1511.3 501 1466.8 501C1422.3 501 1377.7 501 1333.2 501C1288.7 501 1244.3 501 1200 501C1155.7 501 1111.3 501 1066.8 501C1022.3 501 977.7 501 933.2 501C888.7 501 844.3 501 800 501C755.7 501 711.3 501 666.8 501C622.3 501 577.7 501 533.2 501C488.7 501 444.3 501 400 501C355.7 501 311.3 501 266.8 501C222.3 501 177.7 501 133.2 501C88.7 501 44.3 501 22.2 501L0 501Z" fill="#241f16"></path><path d="M0 470L22.2 470C44.3 470 88.7 470 133.2 472.5C177.7 475 222.3 480 266.8 481.5C311.3 483 355.7 481 400 480.3C444.3 479.7 488.7 480.3 533.2 479.7C577.7 479 622.3 477 666.8 477.8C711.3 478.7 755.7 482.3 800 481.3C844.3 480.3 888.7 474.7 933.2 474.8C977.7 475 1022.3 481 1066.8 480C1111.3 479 1155.7 471 1200 470.2C1244.3 469.3 1288.7 475.7 1333.2 477.5C1377.7 479.3 1422.3 476.7 1466.8 475.2C1511.3 473.7 1555.7 473.3 1577.8 473.2L1600 473L1600 501L1577.8 501C1555.7 501 1511.3 501 1466.8 501C1422.3 501 1377.7 501 1333.2 501C1288.7 501 1244.3 501 1200 501C1155.7 501 1111.3 501 1066.8 501C1022.3 501 977.7 501 933.2 501C888.7 501 844.3 501 800 501C755.7 501 711.3 501 666.8 501C622.3 501 577.7 501 533.2 501C488.7 501 444.3 501 400 501C355.7 501 311.3 501 266.8 501C222.3 501 177.7 501 133.2 501C88.7 501 44.3 501 22.2 501L0 501Z" fill="#181305"></path><path d="M0 493L22.2 491.5C44.3 490 88.7 487 133.2 487C177.7 487 222.3 490 266.8 490.5C311.3 491 355.7 489 400 487.3C444.3 485.7 488.7 484.3 533.2 484.8C577.7 485.3 622.3 487.7 666.8 486.8C711.3 486 755.7 482 800 482.2C844.3 482.3 888.7 486.7 933.2 488.5C977.7 490.3 1022.3 489.7 1066.8 487.3C1111.3 485 1155.7 481 1200 479.5C1244.3 478 1288.7 479 1333.2 480.2C1377.7 481.3 1422.3 482.7 1466.8 482.2C1511.3 481.7 1555.7 479.3 1577.8 478.2L1600 477L1600 501L1577.8 501C1555.7 501 1511.3 501 1466.8 501C1422.3 501 1377.7 501 1333.2 501C1288.7 501 1244.3 501 1200 501C1155.7 501 1111.3 501 1066.8 501C1022.3 501 977.7 501 933.2 501C888.7 501 844.3 501 800 501C755.7 501 711.3 501 666.8 501C622.3 501 577.7 501 533.2 501C488.7 501 444.3 501 400 501C355.7 501 311.3 501 266.8 501C222.3 501 177.7 501 133.2 501C88.7 501 44.3 501 22.2 501L0 501Z" fill="#000000"></path></svg>