<svg id="visual" viewBox="0 0 1600 500" width="1600" height="500" xmlns="http://www.w3.org/2000/svg" xmlns:xlink="http://www.w3.org/1999/xlink" version="1.1"><path d="M0 128L38.2 136.5C76.3 145 152.7 162 228.8 168.8C305 175.7 381 172.3 457.2 164C533.3 155.7 609.7 142.3 685.8 147C762 151.7 838 174.3 914.2 182C990.3 189.7 1066.7 182.3 1142.8 173.8C1219 165.3 1295 155.7 1371.2 154C1447.3 152.3 1523.7 158.7 1561.8 161.8L1600 165L1600 0L1561.8 0C1523.7 0 1447.3 0 1371.2 0C1295 0 1219 0 1142.8 0C1066.7 0 990.3 0 914.2 0C838 0 762 0 685.8 0C609.7 0 533.3 0 457.2 0C381 0 305 0 228.8 0C152.7 0 76.3 0 38.2 0L0 0Z" fill="#cccccc"></path><path d="M0 166L38.2 159.8C76.3 153.7 152.7 141.3 228.8 133.7C305 126 381 123 457.2 121.7C533.3 120.3 609.7 120.7 685.8 128.5C762 136.3 838 151.7 914.2 152.7C990.3 153.7 1066.7 140.3 1142.8 129.2C1219 118 1295 109 1371.2 105.7C1447.3 102.3 1523.7 104.7 1561.8 105.8L1600 107L1600 0L1561.8 0C1523.7 0 1447.3 0 1371.2 0C1295 0 1219 0 1142.8 0C1066.7 0 990.3 0 914.2 0C838 0 762 0 685.8 0C609.7 0 533.3 0 457.2 0C381 0 305 0 228.8 0C152.7 0 76.3 0 38.2 0L0 0Z" fill="#959595"></path><path d="M0 87L38.2 85C76.3 83 152.7 79 228.8 77.3C305 75.7 381 76.3 457.2 78.8C533.3 81.3 609.7 85.7 685.8 86.7C762 87.7 838 85.3 914.2 84.7C990.3 84 1066.7 85 1142.8 87.7C1219 90.3 1295 94.7 1371.2 92.3C1447.3 90 1523.7 81 1561.8 76.5L1600 72L1600 0L1561.8 0C1523.7 0 1447.3 0 1371.2 0C1295 0 1219 0 1142.8 0C1066.7 0 990.3 0 914.2 0C838 0 762 0 685.8 0C609.7 0 533.3 0 457.2 0C381 0 305 0 228.8 0C152.7 0 76.3 0 38.2 0L0 0Z" fill="#616161"></path><path d="M0 85L38.2 84.7C76.3 84.3 152.7 83.7 228.8 77.5C305 71.3 381 59.7 457.2 61C533.3 62.3 609.7 76.7 685.8 76.3C762 76 838 61 914.2 58C990.3 55 1066.7 64 1142.8 72.3C1219 80.7 1295 88.3 1371.2 91C1447.3 93.7 1523.7 91.3 1561.8 90.2L1600 89L1600 0L1561.8 0C1523.7 0 1447.3 0 1371.2 0C1295 0 1219 0 1142.8 0C1066.7 0 990.3 0 914.2 0C838 0 762 0 685.8 0C609.7 0 533.3 0 457.2 0C381 0 305 0 228.8 0C152.7 0 76.3 0 38.2 0L0 0Z" fill="#323232"></path><path d="M0 37L38.2 36.7C76.3 36.3 152.7 35.7 228.8 38.8C305 42 381 49 457.2 49.7C533.3 50.3 609.7 44.7 685.8 40.3C762 36 838 33 914.2 35.5C990.3 38 1066.7 46 1142.8 50.7C1219 55.3 1295 56.7 1371.2 52.7C1447.3 48.7 1523.7 39.3 1561.8 34.7L1600 30L1600 0L1561.8 0C1523.7 0 1447.3 0 1371.2 0C1295 0 1219 0 1142.8 0C1066.7 0 990.3 0 914.2 0C838 0 762 0 685.8 0C609.7 0 533.3 0 457.2 0C381 0 305 0 228.8 0C152.7 0 76.3 0 38.2 0L0 0Z" fill="#000000"></path></svg>